# xmcd
#
# Track frame offsets:
#	150
#	32889
#	67108
#	102631
#	128963
#	171496
#	203450
#	224125
#	264323
#	296727
#
# Disc length: 4553 seconds
#
# Revision: 1
# Processed by: cddbd v1.5.2PL0 Copyright (c) Steve Scherf et al.
# Submitted via: audiograbber 1.83.01
#
DISCID=a811c70a
DTITLE=Grateful Dead - 93-08-27 Shoreline Amphitheatre, Mountain View CA
DYEAR=1900
DGENRE=
TTITLE0=Mississippi Half-Step
TTITLE1=New Minglewood Blues
TTITLE2=Lazy River Road
TTITLE3=Broken Arrow
TTITLE4=Eternity
TTITLE5=Loose Lucy
TTITLE6=Johnny B Goode
TTITLE7=Iko Iko
TTITLE8=Wave To The Wind
TTITLE9=Playing In The Band
EXTD=
EXTT0=
EXTT1=
EXTT2=
EXTT3=
EXTT4=
EXTT5=
EXTT6=
EXTT7=
EXTT8=
EXTT9=
PLAYORDER=
